<mxfile host="app.diagrams.net" agent="Mozilla/5.0 (X11; Linux x86_64) AppleWebKit/537.36 (KHTML, like Gecko) Chrome/127.0.0.0 Safari/537.36" version="26.0.7">
  <diagram name="Page-1" id="ZFVRr7OpjtKKJH29cP2N">
    <mxGraphModel dx="3718" dy="2628" grid="1" gridSize="10" guides="1" tooltips="1" connect="1" arrows="1" fold="1" page="1" pageScale="1" pageWidth="850" pageHeight="1100" math="0" shadow="0">
      <root>
        <mxCell id="0" />
        <mxCell id="1" parent="0" />
        <mxCell id="-ydNmQB9zM_-2W_fWb3f-100" style="edgeStyle=orthogonalEdgeStyle;rounded=0;orthogonalLoop=1;jettySize=auto;html=1;entryX=0.14;entryY=1.007;entryDx=0;entryDy=0;entryPerimeter=0;startArrow=classic;startFill=1;exitX=0.807;exitY=0;exitDx=0;exitDy=0;exitPerimeter=0;" edge="1" parent="1" source="7SUzxIseQcVDFoDJgZ21-4" target="-ydNmQB9zM_-2W_fWb3f-50">
          <mxGeometry relative="1" as="geometry" />
        </mxCell>
        <mxCell id="7SUzxIseQcVDFoDJgZ21-4" value="" style="rounded=0;whiteSpace=wrap;html=1;strokeWidth=2;fillColor=#fff5d6;strokeColor=#000000;" parent="1" vertex="1">
          <mxGeometry x="-780" y="9.999999999999927" width="570" height="417.25" as="geometry" />
        </mxCell>
        <mxCell id="7SUzxIseQcVDFoDJgZ21-5" value="&lt;font style=&quot;font-size: 14px;&quot;&gt;&lt;b&gt;&lt;i&gt;Software System&lt;/i&gt;&lt;/b&gt;&lt;/font&gt;" style="text;html=1;align=center;verticalAlign=middle;resizable=0;points=[];autosize=1;strokeColor=none;fillColor=none;" parent="1" vertex="1">
          <mxGeometry x="-780" y="10.499999999999927" width="140" height="30" as="geometry" />
        </mxCell>
        <mxCell id="nUs16ag-8KY5u_Jwet5G-22" value="" style="rounded=0;whiteSpace=wrap;html=1;fillColor=#FFF5D6;strokeWidth=2;" parent="1" vertex="1">
          <mxGeometry x="-150" y="-71.25000000000009" width="470" height="590" as="geometry" />
        </mxCell>
        <mxCell id="nUs16ag-8KY5u_Jwet5G-24" value="&lt;font style=&quot;font-size: 14px;&quot;&gt;&lt;b&gt;&lt;i&gt;Modules&lt;/i&gt;&lt;/b&gt;&lt;/font&gt;" style="text;html=1;align=center;verticalAlign=middle;resizable=0;points=[];autosize=1;strokeColor=none;fillColor=none;" parent="1" vertex="1">
          <mxGeometry x="-150" y="-71.25000000000009" width="80" height="30" as="geometry" />
        </mxCell>
        <mxCell id="nUs16ag-8KY5u_Jwet5G-88" value="" style="rounded=0;whiteSpace=wrap;html=1;" parent="1" vertex="1">
          <mxGeometry x="107.15" y="19.5199999999999" width="180.46" height="158.25" as="geometry" />
        </mxCell>
        <mxCell id="nUs16ag-8KY5u_Jwet5G-89" value="&lt;i style=&quot;&quot;&gt;&lt;font style=&quot;font-size: 12px;&quot;&gt;Numpy Optimized&lt;/font&gt;&lt;/i&gt;" style="html=1;dropTarget=0;whiteSpace=wrap;fillColor=#EEEEEE;" parent="1" vertex="1">
          <mxGeometry x="152.26" y="39.7699999999999" width="90.24" height="46" as="geometry" />
        </mxCell>
        <mxCell id="nUs16ag-8KY5u_Jwet5G-90" value="&lt;i&gt;Numba JIT Optimized&lt;/i&gt;" style="html=1;dropTarget=0;whiteSpace=wrap;fillColor=#EEEEEE;" parent="1" vertex="1">
          <mxGeometry x="152.26000000000002" y="97.7699999999999" width="90.24" height="46" as="geometry" />
        </mxCell>
        <mxCell id="nUs16ag-8KY5u_Jwet5G-91" value="&lt;font size=&quot;1&quot; color=&quot;#000099&quot; style=&quot;&quot;&gt;&lt;i style=&quot;font-size: 12px;&quot;&gt;Finance Module&lt;/i&gt;&lt;/font&gt;" style="text;html=1;align=center;verticalAlign=middle;resizable=0;points=[];autosize=1;strokeColor=none;fillColor=none;" parent="1" vertex="1">
          <mxGeometry x="177.60999999999999" y="148.2699999999999" width="110" height="30" as="geometry" />
        </mxCell>
        <mxCell id="48fDKb3yu4CFOlkJPKU8-24" value="MAPE-K Rules" style="rounded=0;whiteSpace=wrap;html=1;" parent="1" vertex="1">
          <mxGeometry x="-5.22999999999999" y="-48.54000000000005" width="180.46" height="47" as="geometry" />
        </mxCell>
        <mxCell id="NnZYRGLzejtgDi9ghLFj-72" style="edgeStyle=orthogonalEdgeStyle;rounded=0;orthogonalLoop=1;jettySize=auto;html=1;" parent="1" source="NnZYRGLzejtgDi9ghLFj-1" target="nUs16ag-8KY5u_Jwet5G-22" edge="1">
          <mxGeometry relative="1" as="geometry" />
        </mxCell>
        <mxCell id="NnZYRGLzejtgDi9ghLFj-1" value="" style="rounded=0;whiteSpace=wrap;html=1;strokeWidth=2;" parent="1" vertex="1">
          <mxGeometry x="-470" y="56.05999999999987" width="220" height="334.25" as="geometry" />
        </mxCell>
        <mxCell id="NnZYRGLzejtgDi9ghLFj-4" value="&lt;i&gt;User Login&lt;/i&gt;" style="html=1;dropTarget=0;whiteSpace=wrap;fillColor=#EEEEEE;" parent="1" vertex="1">
          <mxGeometry x="-403.12" y="78.62000000000005" width="90.24" height="46" as="geometry" />
        </mxCell>
        <mxCell id="NnZYRGLzejtgDi9ghLFj-5" value="&lt;i&gt;Cryptography&lt;/i&gt;" style="html=1;dropTarget=0;whiteSpace=wrap;fillColor=#EEEEEE;" parent="1" vertex="1">
          <mxGeometry x="-403.12" y="153.12000000000003" width="90.24" height="46" as="geometry" />
        </mxCell>
        <mxCell id="NnZYRGLzejtgDi9ghLFj-11" value="&lt;i style=&quot;&quot;&gt;&lt;font style=&quot;font-size: 12px;&quot;&gt;Finance&lt;/font&gt;&lt;/i&gt;" style="html=1;dropTarget=0;whiteSpace=wrap;fillColor=#EEEEEE;" parent="1" vertex="1">
          <mxGeometry x="-403.12" y="224.49999999999991" width="90.24" height="46" as="geometry" />
        </mxCell>
        <mxCell id="NnZYRGLzejtgDi9ghLFj-12" value="&lt;i&gt;Physics&lt;/i&gt;" style="html=1;dropTarget=0;whiteSpace=wrap;fillColor=#EEEEEE;" parent="1" vertex="1">
          <mxGeometry x="-403.12" y="298.9999999999997" width="90.24" height="46" as="geometry" />
        </mxCell>
        <mxCell id="NnZYRGLzejtgDi9ghLFj-35" value="&lt;font color=&quot;#000099&quot;&gt;&lt;i&gt;Self-Adaptive Features&lt;/i&gt;&lt;/font&gt;" style="text;html=1;align=center;verticalAlign=middle;resizable=0;points=[];autosize=1;strokeColor=none;fillColor=none;" parent="1" vertex="1">
          <mxGeometry x="-400" y="360.3100000000001" width="150" height="30" as="geometry" />
        </mxCell>
        <mxCell id="K5gOMNAxIlGWHmhBvM_P-454" style="edgeStyle=orthogonalEdgeStyle;rounded=0;orthogonalLoop=1;jettySize=auto;html=1;dashed=1;startArrow=classic;startFill=1;" parent="1" source="NnZYRGLzejtgDi9ghLFj-44" target="K5gOMNAxIlGWHmhBvM_P-452" edge="1">
          <mxGeometry relative="1" as="geometry" />
        </mxCell>
        <mxCell id="NnZYRGLzejtgDi9ghLFj-44" value="" style="rounded=0;whiteSpace=wrap;html=1;strokeWidth=2;dashed=1;" parent="1" vertex="1">
          <mxGeometry x="-740" y="55.30999999999987" width="220" height="334.25" as="geometry" />
        </mxCell>
        <mxCell id="NnZYRGLzejtgDi9ghLFj-45" value="&lt;i&gt;Signup&lt;/i&gt;" style="html=1;dropTarget=0;whiteSpace=wrap;fillColor=#EEEEEE;" parent="1" vertex="1">
          <mxGeometry x="-673.1199999999999" y="77.86999999999982" width="90.24" height="46" as="geometry" />
        </mxCell>
        <mxCell id="NnZYRGLzejtgDi9ghLFj-46" value="&lt;i&gt;Admin Login&lt;/i&gt;" style="html=1;dropTarget=0;whiteSpace=wrap;fillColor=#EEEEEE;" parent="1" vertex="1">
          <mxGeometry x="-673.1199999999999" y="152.3699999999998" width="90.24" height="46" as="geometry" />
        </mxCell>
        <mxCell id="NnZYRGLzejtgDi9ghLFj-47" value="&lt;i style=&quot;&quot;&gt;&lt;font style=&quot;font-size: 12px;&quot;&gt;Get All Users&lt;/font&gt;&lt;/i&gt;" style="html=1;dropTarget=0;whiteSpace=wrap;fillColor=#EEEEEE;" parent="1" vertex="1">
          <mxGeometry x="-673.1199999999999" y="223.74999999999991" width="90.24" height="46" as="geometry" />
        </mxCell>
        <mxCell id="NnZYRGLzejtgDi9ghLFj-48" value="&lt;i&gt;Delete User&lt;/i&gt;" style="html=1;dropTarget=0;whiteSpace=wrap;fillColor=#EEEEEE;" parent="1" vertex="1">
          <mxGeometry x="-673.1199999999999" y="298.25000000000017" width="90.24" height="46" as="geometry" />
        </mxCell>
        <mxCell id="NnZYRGLzejtgDi9ghLFj-49" value="&lt;font color=&quot;#000099&quot;&gt;&lt;i&gt;Other Features&lt;/i&gt;&lt;/font&gt;" style="text;html=1;align=center;verticalAlign=middle;resizable=0;points=[];autosize=1;strokeColor=none;fillColor=none;" parent="1" vertex="1">
          <mxGeometry x="-620" y="360.3100000000001" width="100" height="30" as="geometry" />
        </mxCell>
        <mxCell id="NnZYRGLzejtgDi9ghLFj-55" value="" style="rounded=0;whiteSpace=wrap;html=1;" parent="1" vertex="1">
          <mxGeometry x="107.15" y="204.0199999999999" width="180.46" height="283.75" as="geometry" />
        </mxCell>
        <mxCell id="NnZYRGLzejtgDi9ghLFj-56" value="&lt;i&gt;Numpy Optimized&lt;/i&gt;" style="html=1;dropTarget=0;whiteSpace=wrap;fillColor=#EEEEEE;" parent="1" vertex="1">
          <mxGeometry x="152.26" y="224.2699999999999" width="90.24" height="46" as="geometry" />
        </mxCell>
        <mxCell id="NnZYRGLzejtgDi9ghLFj-57" value="&lt;i&gt;Numba NJIT Array Optimized&lt;/i&gt;" style="html=1;dropTarget=0;whiteSpace=wrap;fillColor=#EEEEEE;" parent="1" vertex="1">
          <mxGeometry x="152.26000000000002" y="282.2699999999999" width="90.24" height="46" as="geometry" />
        </mxCell>
        <mxCell id="NnZYRGLzejtgDi9ghLFj-58" value="&lt;font size=&quot;1&quot; color=&quot;#000099&quot; style=&quot;&quot;&gt;&lt;i style=&quot;font-size: 12px;&quot;&gt;Physics Module&lt;/i&gt;&lt;/font&gt;" style="text;html=1;align=center;verticalAlign=middle;resizable=0;points=[];autosize=1;strokeColor=none;fillColor=none;" parent="1" vertex="1">
          <mxGeometry x="177.60999999999999" y="457.7699999999999" width="110" height="30" as="geometry" />
        </mxCell>
        <mxCell id="NnZYRGLzejtgDi9ghLFj-59" value="&lt;i&gt;Numba NJIT Scalar Optimized&lt;/i&gt;" style="html=1;dropTarget=0;whiteSpace=wrap;fillColor=#EEEEEE;" parent="1" vertex="1">
          <mxGeometry x="152.26" y="341.07999999999987" width="90.24" height="46" as="geometry" />
        </mxCell>
        <mxCell id="NnZYRGLzejtgDi9ghLFj-60" value="&lt;i&gt;Numba NJIT Scalar Prange Optimized&lt;/i&gt;" style="html=1;dropTarget=0;whiteSpace=wrap;fillColor=#EEEEEE;" parent="1" vertex="1">
          <mxGeometry x="152.26000000000002" y="399.07999999999987" width="90.24" height="46" as="geometry" />
        </mxCell>
        <mxCell id="NnZYRGLzejtgDi9ghLFj-61" value="" style="rounded=0;whiteSpace=wrap;html=1;" parent="1" vertex="1">
          <mxGeometry x="-117.62" y="204.0199999999999" width="180.46" height="283.75" as="geometry" />
        </mxCell>
        <mxCell id="NnZYRGLzejtgDi9ghLFj-62" value="&lt;i&gt;Wire&lt;/i&gt;" style="html=1;dropTarget=0;whiteSpace=wrap;fillColor=#EEEEEE;" parent="1" vertex="1">
          <mxGeometry x="-72.51000000000002" y="224.2699999999999" width="90.24" height="46" as="geometry" />
        </mxCell>
        <mxCell id="NnZYRGLzejtgDi9ghLFj-63" value="&lt;i&gt;Shift Cipher&lt;/i&gt;" style="html=1;dropTarget=0;whiteSpace=wrap;fillColor=#EEEEEE;" parent="1" vertex="1">
          <mxGeometry x="-72.50999999999999" y="282.2699999999999" width="90.24" height="46" as="geometry" />
        </mxCell>
        <mxCell id="NnZYRGLzejtgDi9ghLFj-64" value="&lt;font size=&quot;1&quot; color=&quot;#000099&quot; style=&quot;&quot;&gt;&lt;i style=&quot;font-size: 12px;&quot;&gt;Cryptography Module&lt;/i&gt;&lt;/font&gt;" style="text;html=1;align=center;verticalAlign=middle;resizable=0;points=[];autosize=1;strokeColor=none;fillColor=none;" parent="1" vertex="1">
          <mxGeometry x="-77.16000000000003" y="457.7699999999999" width="140" height="30" as="geometry" />
        </mxCell>
        <mxCell id="NnZYRGLzejtgDi9ghLFj-65" value="&lt;i&gt;Triple DES&lt;/i&gt;" style="html=1;dropTarget=0;whiteSpace=wrap;fillColor=#EEEEEE;" parent="1" vertex="1">
          <mxGeometry x="-72.51000000000002" y="341.07999999999987" width="90.24" height="46" as="geometry" />
        </mxCell>
        <mxCell id="NnZYRGLzejtgDi9ghLFj-66" value="&lt;i&gt;RSA&lt;/i&gt;" style="html=1;dropTarget=0;whiteSpace=wrap;fillColor=#EEEEEE;" parent="1" vertex="1">
          <mxGeometry x="-72.50999999999999" y="399.07999999999987" width="90.24" height="46" as="geometry" />
        </mxCell>
        <mxCell id="NnZYRGLzejtgDi9ghLFj-67" value="" style="rounded=0;whiteSpace=wrap;html=1;" parent="1" vertex="1">
          <mxGeometry x="-117.62" y="19.0199999999999" width="180.46" height="158.25" as="geometry" />
        </mxCell>
        <mxCell id="NnZYRGLzejtgDi9ghLFj-68" value="&lt;i style=&quot;&quot;&gt;&lt;font style=&quot;font-size: 12px;&quot;&gt;Basic Auth&lt;/font&gt;&lt;/i&gt;" style="html=1;dropTarget=0;whiteSpace=wrap;fillColor=#EEEEEE;" parent="1" vertex="1">
          <mxGeometry x="-72.51000000000002" y="39.2699999999999" width="90.24" height="46" as="geometry" />
        </mxCell>
        <mxCell id="NnZYRGLzejtgDi9ghLFj-69" value="&lt;i&gt;Safe Basic Auth&lt;/i&gt;" style="html=1;dropTarget=0;whiteSpace=wrap;fillColor=#EEEEEE;" parent="1" vertex="1">
          <mxGeometry x="-72.50999999999999" y="97.2699999999999" width="90.24" height="46" as="geometry" />
        </mxCell>
        <mxCell id="NnZYRGLzejtgDi9ghLFj-70" value="&lt;font size=&quot;1&quot; color=&quot;#000099&quot;&gt;&lt;i style=&quot;font-size: 12px;&quot;&gt;User Login Module&lt;/i&gt;&lt;/font&gt;" style="text;html=1;align=center;verticalAlign=middle;resizable=0;points=[];autosize=1;strokeColor=none;fillColor=none;" parent="1" vertex="1">
          <mxGeometry x="-57.160000000000025" y="148.2699999999999" width="120" height="30" as="geometry" />
        </mxCell>
        <mxCell id="K5gOMNAxIlGWHmhBvM_P-450" value="" style="sketch=0;outlineConnect=0;fontColor=#232F3E;gradientColor=none;fillColor=#232F3D;strokeColor=none;dashed=0;verticalLabelPosition=bottom;verticalAlign=top;align=center;html=1;fontSize=12;fontStyle=0;aspect=fixed;pointerEvents=1;shape=mxgraph.aws4.user;" parent="1" vertex="1">
          <mxGeometry x="-650" y="604.4799999999999" width="40" height="40" as="geometry" />
        </mxCell>
        <mxCell id="K5gOMNAxIlGWHmhBvM_P-451" value="" style="edgeStyle=orthogonalEdgeStyle;rounded=0;orthogonalLoop=1;jettySize=auto;html=1;startArrow=classic;startFill=1;" parent="1" source="K5gOMNAxIlGWHmhBvM_P-452" target="K5gOMNAxIlGWHmhBvM_P-450" edge="1">
          <mxGeometry relative="1" as="geometry" />
        </mxCell>
        <mxCell id="K5gOMNAxIlGWHmhBvM_P-452" value="" style="rounded=0;whiteSpace=wrap;html=1;fillColor=#FFF5D6;strokeWidth=2;" parent="1" vertex="1">
          <mxGeometry x="-706.25" y="487.76999999999987" width="152.5" height="60" as="geometry" />
        </mxCell>
        <mxCell id="K5gOMNAxIlGWHmhBvM_P-453" value="&lt;font style=&quot;font-size: 14px;&quot;&gt;&lt;b&gt;&lt;i&gt;Native Runtime&lt;/i&gt;&lt;/b&gt;&lt;/font&gt;" style="text;html=1;align=center;verticalAlign=middle;resizable=0;points=[];autosize=1;strokeColor=none;fillColor=none;" parent="1" vertex="1">
          <mxGeometry x="-696.25" y="502.76999999999987" width="130" height="30" as="geometry" />
        </mxCell>
        <mxCell id="K5gOMNAxIlGWHmhBvM_P-460" value="" style="points=[];aspect=fixed;html=1;align=center;shadow=0;dashed=0;fillColor=#FF6A00;strokeColor=none;shape=mxgraph.alibaba_cloud.isoc_iot_security_operations_center;" parent="1" vertex="1">
          <mxGeometry x="840.5399999999998" y="-137.45000000000027" width="49.5" height="54.900000000000006" as="geometry" />
        </mxCell>
        <mxCell id="-ydNmQB9zM_-2W_fWb3f-4" value="" style="rounded=0;whiteSpace=wrap;html=1;fillColor=#FFF5D6;strokeWidth=2;" vertex="1" parent="1">
          <mxGeometry x="380" y="-30" width="730" height="760" as="geometry" />
        </mxCell>
        <mxCell id="-ydNmQB9zM_-2W_fWb3f-5" value="&lt;font style=&quot;font-size: 14px;&quot;&gt;&lt;b&gt;&lt;i&gt;JetCert&lt;/i&gt;&lt;/b&gt;&lt;/font&gt;" style="text;html=1;align=center;verticalAlign=middle;resizable=0;points=[];autosize=1;strokeColor=none;fillColor=none;" vertex="1" parent="1">
          <mxGeometry x="380" y="-30" width="70" height="30" as="geometry" />
        </mxCell>
        <mxCell id="-ydNmQB9zM_-2W_fWb3f-7" value="" style="rounded=0;whiteSpace=wrap;html=1;" vertex="1" parent="1">
          <mxGeometry x="434.33" y="170" width="192.52" height="206.75" as="geometry" />
        </mxCell>
        <mxCell id="-ydNmQB9zM_-2W_fWb3f-8" value="&lt;font size=&quot;1&quot; color=&quot;#000099&quot; style=&quot;&quot;&gt;&lt;i style=&quot;font-size: 12px;&quot;&gt;Core&lt;/i&gt;&lt;/font&gt;" style="text;html=1;align=center;verticalAlign=middle;resizable=0;points=[];autosize=1;strokeColor=none;fillColor=none;" vertex="1" parent="1">
          <mxGeometry x="577.2099999999998" y="347.5" width="50" height="30" as="geometry" />
        </mxCell>
        <mxCell id="-ydNmQB9zM_-2W_fWb3f-24" value="" style="shape=card;whiteSpace=wrap;html=1;direction=south;" vertex="1" parent="1">
          <mxGeometry x="715.32" y="3.25" width="300" height="220" as="geometry" />
        </mxCell>
        <mxCell id="-ydNmQB9zM_-2W_fWb3f-25" value="&lt;font size=&quot;1&quot; color=&quot;#000099&quot; style=&quot;&quot;&gt;&lt;i style=&quot;font-size: 12px;&quot;&gt;MAPE-K Loop&lt;/i&gt;&lt;/font&gt;" style="text;html=1;align=center;verticalAlign=middle;resizable=0;points=[];autosize=1;strokeColor=none;fillColor=none;" vertex="1" parent="1">
          <mxGeometry x="915.32" y="193.25" width="100" height="30" as="geometry" />
        </mxCell>
        <mxCell id="-ydNmQB9zM_-2W_fWb3f-27" value="&lt;i&gt;Adaptive Runtime&lt;/i&gt;" style="rounded=0;whiteSpace=wrap;html=1;" vertex="1" parent="1">
          <mxGeometry x="447.56000000000006" y="36.99999999999994" width="166.06" height="47" as="geometry" />
        </mxCell>
        <mxCell id="-ydNmQB9zM_-2W_fWb3f-28" style="edgeStyle=orthogonalEdgeStyle;rounded=0;orthogonalLoop=1;jettySize=auto;html=1;entryX=0.5;entryY=1;entryDx=0;entryDy=0;startArrow=classic;startFill=1;" edge="1" parent="1" source="-ydNmQB9zM_-2W_fWb3f-30" target="-ydNmQB9zM_-2W_fWb3f-27">
          <mxGeometry relative="1" as="geometry" />
        </mxCell>
        <mxCell id="-ydNmQB9zM_-2W_fWb3f-29" value="" style="edgeStyle=orthogonalEdgeStyle;rounded=0;orthogonalLoop=1;jettySize=auto;html=1;startArrow=classic;startFill=1;" edge="1" parent="1" source="-ydNmQB9zM_-2W_fWb3f-30" target="-ydNmQB9zM_-2W_fWb3f-49">
          <mxGeometry relative="1" as="geometry" />
        </mxCell>
        <mxCell id="-ydNmQB9zM_-2W_fWb3f-94" style="edgeStyle=orthogonalEdgeStyle;rounded=0;orthogonalLoop=1;jettySize=auto;html=1;entryX=1;entryY=0.5;entryDx=0;entryDy=0;startArrow=classic;startFill=1;endArrow=none;" edge="1" parent="1" source="-ydNmQB9zM_-2W_fWb3f-30" target="nUs16ag-8KY5u_Jwet5G-22">
          <mxGeometry relative="1" as="geometry" />
        </mxCell>
        <mxCell id="-ydNmQB9zM_-2W_fWb3f-30" value="&lt;div&gt;&lt;i&gt;Modules&lt;/i&gt;&lt;/div&gt;&lt;div&gt;&lt;i&gt;Management&lt;/i&gt;&lt;/div&gt;" style="html=1;dropTarget=0;whiteSpace=wrap;fillColor=#EEEEEE;" vertex="1" parent="1">
          <mxGeometry x="484.8299999999999" y="200.75" width="90.24" height="46" as="geometry" />
        </mxCell>
        <mxCell id="-ydNmQB9zM_-2W_fWb3f-31" value="" style="rounded=0;whiteSpace=wrap;html=1;" vertex="1" parent="1">
          <mxGeometry x="412.2199999999999" y="540.3599999999999" width="244" height="160" as="geometry" />
        </mxCell>
        <mxCell id="-ydNmQB9zM_-2W_fWb3f-32" value="&lt;font size=&quot;1&quot; color=&quot;#000099&quot; style=&quot;&quot;&gt;&lt;i style=&quot;font-size: 12px;&quot;&gt;Safe Builder&lt;/i&gt;&lt;/font&gt;" style="text;html=1;align=center;verticalAlign=middle;resizable=0;points=[];autosize=1;strokeColor=none;fillColor=none;" vertex="1" parent="1">
          <mxGeometry x="566.22" y="670.3599999999999" width="90" height="30" as="geometry" />
        </mxCell>
        <mxCell id="-ydNmQB9zM_-2W_fWb3f-33" value="&lt;i&gt;LLVM&lt;/i&gt;" style="html=1;dropTarget=0;whiteSpace=wrap;fillColor=#EEEEEE;" vertex="1" parent="1">
          <mxGeometry x="437.91999999999996" y="556.3599999999999" width="90.24" height="46" as="geometry" />
        </mxCell>
        <mxCell id="-ydNmQB9zM_-2W_fWb3f-34" value="&lt;i&gt;Coq&lt;/i&gt;" style="html=1;dropTarget=0;whiteSpace=wrap;fillColor=#EEEEEE;" vertex="1" parent="1">
          <mxGeometry x="542.3199999999999" y="556.3599999999999" width="90.24" height="46" as="geometry" />
        </mxCell>
        <mxCell id="-ydNmQB9zM_-2W_fWb3f-35" value="&lt;i style=&quot;&quot;&gt;&lt;font style=&quot;font-size: 12px;&quot;&gt;CompCert&lt;/font&gt;&lt;/i&gt;" style="html=1;dropTarget=0;whiteSpace=wrap;fillColor=#EEEEEE;" vertex="1" parent="1">
          <mxGeometry x="489.09999999999997" y="615.3599999999999" width="90.24" height="46" as="geometry" />
        </mxCell>
        <mxCell id="-ydNmQB9zM_-2W_fWb3f-44" value="" style="rounded=0;whiteSpace=wrap;html=1;" vertex="1" parent="1">
          <mxGeometry x="833.78" y="540.3599999999999" width="244" height="160" as="geometry" />
        </mxCell>
        <mxCell id="-ydNmQB9zM_-2W_fWb3f-45" value="&lt;font size=&quot;1&quot; color=&quot;#000099&quot; style=&quot;&quot;&gt;&lt;i style=&quot;font-size: 12px;&quot;&gt;Fast Builder&lt;/i&gt;&lt;/font&gt;" style="text;html=1;align=center;verticalAlign=middle;resizable=0;points=[];autosize=1;strokeColor=none;fillColor=none;" vertex="1" parent="1">
          <mxGeometry x="987.78" y="670.3599999999999" width="90" height="30" as="geometry" />
        </mxCell>
        <mxCell id="-ydNmQB9zM_-2W_fWb3f-46" value="&lt;i&gt;Numba&lt;/i&gt;" style="html=1;dropTarget=0;whiteSpace=wrap;fillColor=#EEEEEE;" vertex="1" parent="1">
          <mxGeometry x="859.48" y="556.3599999999999" width="90.24" height="46" as="geometry" />
        </mxCell>
        <mxCell id="-ydNmQB9zM_-2W_fWb3f-47" value="&lt;i&gt;Codon&lt;/i&gt;" style="html=1;dropTarget=0;whiteSpace=wrap;fillColor=#EEEEEE;" vertex="1" parent="1">
          <mxGeometry x="963.8799999999999" y="556.3599999999999" width="90.24" height="46" as="geometry" />
        </mxCell>
        <mxCell id="-ydNmQB9zM_-2W_fWb3f-48" value="&lt;i style=&quot;&quot;&gt;&lt;font style=&quot;font-size: 12px;&quot;&gt;Python&lt;/font&gt;&lt;/i&gt;" style="html=1;dropTarget=0;whiteSpace=wrap;fillColor=#EEEEEE;" vertex="1" parent="1">
          <mxGeometry x="910.6600000000001" y="615.3599999999999" width="90.24" height="46" as="geometry" />
        </mxCell>
        <mxCell id="-ydNmQB9zM_-2W_fWb3f-49" value="&lt;i&gt;Versions Management&lt;/i&gt;" style="html=1;dropTarget=0;whiteSpace=wrap;fillColor=#EEEEEE;" vertex="1" parent="1">
          <mxGeometry x="484.83000000000004" y="294.75" width="90.24" height="46" as="geometry" />
        </mxCell>
        <mxCell id="-ydNmQB9zM_-2W_fWb3f-50" value="" style="rounded=0;whiteSpace=wrap;html=1;fillColor=#FFF5D6;strokeWidth=2;" vertex="1" parent="1">
          <mxGeometry x="-425" y="-190" width="750" height="60" as="geometry" />
        </mxCell>
        <mxCell id="-ydNmQB9zM_-2W_fWb3f-51" value="&lt;font style=&quot;font-size: 14px;&quot;&gt;&lt;b&gt;&lt;i&gt;Version Control System (Git)&lt;/i&gt;&lt;/b&gt;&lt;/font&gt;" style="text;html=1;align=center;verticalAlign=middle;resizable=0;points=[];autosize=1;strokeColor=none;fillColor=none;" vertex="1" parent="1">
          <mxGeometry x="-155" y="-175" width="210" height="30" as="geometry" />
        </mxCell>
        <mxCell id="-ydNmQB9zM_-2W_fWb3f-52" value="" style="rounded=0;whiteSpace=wrap;html=1;" vertex="1" parent="1">
          <mxGeometry x="656.29" y="263.25" width="418" height="113.75" as="geometry" />
        </mxCell>
        <mxCell id="-ydNmQB9zM_-2W_fWb3f-53" value="&lt;font size=&quot;1&quot; color=&quot;#000099&quot; style=&quot;&quot;&gt;&lt;i style=&quot;font-size: 12px;&quot;&gt;CI/CD&lt;/i&gt;&lt;/font&gt;" style="text;html=1;align=center;verticalAlign=middle;resizable=0;points=[];autosize=1;strokeColor=none;fillColor=none;" vertex="1" parent="1">
          <mxGeometry x="1014.2899999999998" y="347.5" width="60" height="30" as="geometry" />
        </mxCell>
        <mxCell id="-ydNmQB9zM_-2W_fWb3f-54" value="" style="edgeStyle=orthogonalEdgeStyle;rounded=0;orthogonalLoop=1;jettySize=auto;html=1;" edge="1" parent="1" source="-ydNmQB9zM_-2W_fWb3f-56" target="-ydNmQB9zM_-2W_fWb3f-58">
          <mxGeometry relative="1" as="geometry" />
        </mxCell>
        <mxCell id="-ydNmQB9zM_-2W_fWb3f-55" style="edgeStyle=orthogonalEdgeStyle;rounded=0;orthogonalLoop=1;jettySize=auto;html=1;entryX=0.5;entryY=0;entryDx=0;entryDy=0;exitX=1;exitY=0.5;exitDx=0;exitDy=0;startArrow=classic;startFill=1;endArrow=none;endFill=0;" edge="1" parent="1" source="-ydNmQB9zM_-2W_fWb3f-56" target="-ydNmQB9zM_-2W_fWb3f-50">
          <mxGeometry relative="1" as="geometry">
            <Array as="points">
              <mxPoint x="1170" y="317" />
              <mxPoint x="1170" y="-250" />
              <mxPoint x="-50" y="-250" />
            </Array>
          </mxGeometry>
        </mxCell>
        <mxCell id="-ydNmQB9zM_-2W_fWb3f-56" value="CI" style="html=1;dropTarget=0;whiteSpace=wrap;fillColor=#EEEEEE;" vertex="1" parent="1">
          <mxGeometry x="957.29" y="294.25" width="90.24" height="46" as="geometry" />
        </mxCell>
        <mxCell id="-ydNmQB9zM_-2W_fWb3f-57" value="&lt;i&gt;Builder&lt;/i&gt;" style="rounded=0;whiteSpace=wrap;html=1;" vertex="1" parent="1">
          <mxGeometry x="411" y="420" width="668" height="60" as="geometry" />
        </mxCell>
        <mxCell id="-ydNmQB9zM_-2W_fWb3f-58" value="&lt;font style=&quot;font-size: 10px;&quot;&gt;Priority Queue&lt;/font&gt;" style="strokeWidth=1;outlineConnect=0;dashed=0;align=center;html=1;fontSize=8;shape=mxgraph.eip.messageChannel;verticalLabelPosition=bottom;labelBackgroundColor=#ffffff;verticalAlign=top;" vertex="1" parent="1">
          <mxGeometry x="808.79" y="307.75000000000006" width="113" height="20" as="geometry" />
        </mxCell>
        <mxCell id="-ydNmQB9zM_-2W_fWb3f-59" value="" style="edgeStyle=orthogonalEdgeStyle;rounded=0;orthogonalLoop=1;jettySize=auto;html=1;" edge="1" parent="1" source="-ydNmQB9zM_-2W_fWb3f-61" target="-ydNmQB9zM_-2W_fWb3f-49">
          <mxGeometry relative="1" as="geometry" />
        </mxCell>
        <mxCell id="-ydNmQB9zM_-2W_fWb3f-60" value="" style="edgeStyle=orthogonalEdgeStyle;rounded=0;orthogonalLoop=1;jettySize=auto;html=1;endArrow=none;endFill=0;startArrow=classic;startFill=1;" edge="1" parent="1" source="-ydNmQB9zM_-2W_fWb3f-61" target="-ydNmQB9zM_-2W_fWb3f-58">
          <mxGeometry relative="1" as="geometry" />
        </mxCell>
        <mxCell id="-ydNmQB9zM_-2W_fWb3f-61" value="CD" style="html=1;dropTarget=0;whiteSpace=wrap;fillColor=#EEEEEE;" vertex="1" parent="1">
          <mxGeometry x="686.2899999999997" y="294.25" width="90.24" height="46" as="geometry" />
        </mxCell>
        <mxCell id="-ydNmQB9zM_-2W_fWb3f-62" style="edgeStyle=orthogonalEdgeStyle;rounded=0;orthogonalLoop=1;jettySize=auto;html=1;entryX=0.5;entryY=0;entryDx=0;entryDy=0;startArrow=classic;startFill=1;" edge="1" parent="1" source="-ydNmQB9zM_-2W_fWb3f-63" target="-ydNmQB9zM_-2W_fWb3f-27">
          <mxGeometry relative="1" as="geometry" />
        </mxCell>
        <mxCell id="-ydNmQB9zM_-2W_fWb3f-63" value="" style="sketch=0;outlineConnect=0;fontColor=#232F3E;gradientColor=none;fillColor=#232F3D;strokeColor=none;dashed=0;verticalLabelPosition=bottom;verticalAlign=top;align=center;html=1;fontSize=12;fontStyle=0;aspect=fixed;pointerEvents=1;shape=mxgraph.aws4.user;" vertex="1" parent="1">
          <mxGeometry x="509.9499999999999" y="-130" width="40" height="40" as="geometry" />
        </mxCell>
        <mxCell id="-ydNmQB9zM_-2W_fWb3f-64" value="" style="rounded=0;whiteSpace=wrap;html=1;" vertex="1" parent="1">
          <mxGeometry x="672.28" y="540" width="140" height="160" as="geometry" />
        </mxCell>
        <mxCell id="-ydNmQB9zM_-2W_fWb3f-65" value="&lt;font color=&quot;#000099&quot;&gt;&lt;i&gt;CI/CD Builder&lt;/i&gt;&lt;/font&gt;" style="text;html=1;align=center;verticalAlign=middle;resizable=0;points=[];autosize=1;strokeColor=none;fillColor=none;" vertex="1" parent="1">
          <mxGeometry x="712.28" y="669.9999999999999" width="100" height="30" as="geometry" />
        </mxCell>
        <mxCell id="-ydNmQB9zM_-2W_fWb3f-66" value="Git Agent" style="html=1;dropTarget=0;whiteSpace=wrap;fillColor=#EEEEEE;" vertex="1" parent="1">
          <mxGeometry x="697.98" y="555.9999999999999" width="90.24" height="46" as="geometry" />
        </mxCell>
        <mxCell id="-ydNmQB9zM_-2W_fWb3f-67" value="Git Executor" style="html=1;dropTarget=0;whiteSpace=wrap;fillColor=#EEEEEE;" vertex="1" parent="1">
          <mxGeometry x="697.98" y="614.9999999999999" width="90.24" height="46" as="geometry" />
        </mxCell>
        <mxCell id="-ydNmQB9zM_-2W_fWb3f-68" style="edgeStyle=orthogonalEdgeStyle;rounded=0;orthogonalLoop=1;jettySize=auto;html=1;entryX=0.184;entryY=1;entryDx=0;entryDy=0;entryPerimeter=0;startArrow=classic;startFill=1;" edge="1" parent="1" source="-ydNmQB9zM_-2W_fWb3f-31" target="-ydNmQB9zM_-2W_fWb3f-57">
          <mxGeometry relative="1" as="geometry" />
        </mxCell>
        <mxCell id="-ydNmQB9zM_-2W_fWb3f-69" style="edgeStyle=orthogonalEdgeStyle;rounded=0;orthogonalLoop=1;jettySize=auto;html=1;entryX=0.496;entryY=1;entryDx=0;entryDy=0;entryPerimeter=0;startArrow=classic;startFill=1;" edge="1" parent="1" source="-ydNmQB9zM_-2W_fWb3f-64" target="-ydNmQB9zM_-2W_fWb3f-57">
          <mxGeometry relative="1" as="geometry" />
        </mxCell>
        <mxCell id="-ydNmQB9zM_-2W_fWb3f-70" style="edgeStyle=orthogonalEdgeStyle;rounded=0;orthogonalLoop=1;jettySize=auto;html=1;entryX=0.178;entryY=0;entryDx=0;entryDy=0;entryPerimeter=0;startArrow=classic;startFill=1;" edge="1" parent="1" source="-ydNmQB9zM_-2W_fWb3f-49" target="-ydNmQB9zM_-2W_fWb3f-57">
          <mxGeometry relative="1" as="geometry" />
        </mxCell>
        <mxCell id="-ydNmQB9zM_-2W_fWb3f-71" style="edgeStyle=orthogonalEdgeStyle;rounded=0;orthogonalLoop=1;jettySize=auto;html=1;entryX=0.816;entryY=1;entryDx=0;entryDy=0;entryPerimeter=0;startArrow=classic;startFill=1;" edge="1" parent="1" source="-ydNmQB9zM_-2W_fWb3f-44" target="-ydNmQB9zM_-2W_fWb3f-57">
          <mxGeometry relative="1" as="geometry" />
        </mxCell>
        <mxCell id="-ydNmQB9zM_-2W_fWb3f-72" style="edgeStyle=orthogonalEdgeStyle;rounded=0;orthogonalLoop=1;jettySize=auto;html=1;entryX=0.886;entryY=0;entryDx=0;entryDy=0;entryPerimeter=0;startArrow=classic;startFill=1;" edge="1" parent="1" source="-ydNmQB9zM_-2W_fWb3f-56" target="-ydNmQB9zM_-2W_fWb3f-57">
          <mxGeometry relative="1" as="geometry" />
        </mxCell>
        <mxCell id="-ydNmQB9zM_-2W_fWb3f-75" value="" style="edgeStyle=orthogonalEdgeStyle;rounded=0;orthogonalLoop=1;jettySize=auto;html=1;startArrow=classic;startFill=1;" edge="1" parent="1" source="-ydNmQB9zM_-2W_fWb3f-79" target="-ydNmQB9zM_-2W_fWb3f-81">
          <mxGeometry relative="1" as="geometry" />
        </mxCell>
        <mxCell id="-ydNmQB9zM_-2W_fWb3f-76" value="" style="edgeStyle=orthogonalEdgeStyle;rounded=0;orthogonalLoop=1;jettySize=auto;html=1;startArrow=classic;startFill=1;" edge="1" parent="1" source="-ydNmQB9zM_-2W_fWb3f-79" target="-ydNmQB9zM_-2W_fWb3f-84">
          <mxGeometry relative="1" as="geometry" />
        </mxCell>
        <mxCell id="-ydNmQB9zM_-2W_fWb3f-77" value="" style="edgeStyle=orthogonalEdgeStyle;rounded=0;orthogonalLoop=1;jettySize=auto;html=1;startArrow=classic;startFill=1;" edge="1" parent="1" source="-ydNmQB9zM_-2W_fWb3f-79" target="-ydNmQB9zM_-2W_fWb3f-86">
          <mxGeometry relative="1" as="geometry" />
        </mxCell>
        <mxCell id="-ydNmQB9zM_-2W_fWb3f-78" value="" style="edgeStyle=orthogonalEdgeStyle;rounded=0;orthogonalLoop=1;jettySize=auto;html=1;startArrow=classic;startFill=1;" edge="1" parent="1" source="-ydNmQB9zM_-2W_fWb3f-79" target="-ydNmQB9zM_-2W_fWb3f-88">
          <mxGeometry relative="1" as="geometry" />
        </mxCell>
        <mxCell id="-ydNmQB9zM_-2W_fWb3f-79" value="&lt;i&gt;Knowledge&lt;/i&gt;" style="html=1;dropTarget=0;whiteSpace=wrap;fillColor=#EEEEEE;" vertex="1" parent="1">
          <mxGeometry x="830.32" y="93.25" width="70" height="40" as="geometry" />
        </mxCell>
        <mxCell id="-ydNmQB9zM_-2W_fWb3f-80" style="edgeStyle=orthogonalEdgeStyle;rounded=0;orthogonalLoop=1;jettySize=auto;html=1;entryX=1;entryY=0.5;entryDx=0;entryDy=0;exitX=0.5;exitY=1;exitDx=0;exitDy=0;curved=1;" edge="1" parent="1" source="-ydNmQB9zM_-2W_fWb3f-81" target="-ydNmQB9zM_-2W_fWb3f-88">
          <mxGeometry relative="1" as="geometry" />
        </mxCell>
        <mxCell id="-ydNmQB9zM_-2W_fWb3f-81" value="&lt;i&gt;Analyzer&lt;/i&gt;" style="html=1;dropTarget=0;whiteSpace=wrap;fillColor=#EEEEEE;" vertex="1" parent="1">
          <mxGeometry x="930.32" y="93.25" width="70" height="40" as="geometry" />
        </mxCell>
        <mxCell id="-ydNmQB9zM_-2W_fWb3f-82" style="edgeStyle=orthogonalEdgeStyle;rounded=0;orthogonalLoop=1;jettySize=auto;html=1;entryX=0;entryY=0.5;entryDx=0;entryDy=0;exitX=0.5;exitY=0;exitDx=0;exitDy=0;curved=1;" edge="1" parent="1" source="-ydNmQB9zM_-2W_fWb3f-84" target="-ydNmQB9zM_-2W_fWb3f-86">
          <mxGeometry relative="1" as="geometry" />
        </mxCell>
        <mxCell id="-ydNmQB9zM_-2W_fWb3f-83" style="edgeStyle=orthogonalEdgeStyle;rounded=0;orthogonalLoop=1;jettySize=auto;html=1;entryX=1;entryY=0.5;entryDx=0;entryDy=0;" edge="1" parent="1" source="-ydNmQB9zM_-2W_fWb3f-84" target="-ydNmQB9zM_-2W_fWb3f-30">
          <mxGeometry relative="1" as="geometry">
            <Array as="points">
              <mxPoint x="670" y="113" />
              <mxPoint x="670" y="224" />
            </Array>
          </mxGeometry>
        </mxCell>
        <mxCell id="-ydNmQB9zM_-2W_fWb3f-84" value="&lt;i&gt;Executor&lt;/i&gt;" style="html=1;dropTarget=0;whiteSpace=wrap;fillColor=#EEEEEE;" vertex="1" parent="1">
          <mxGeometry x="730.32" y="93.25" width="70" height="40" as="geometry" />
        </mxCell>
        <mxCell id="-ydNmQB9zM_-2W_fWb3f-85" style="edgeStyle=orthogonalEdgeStyle;rounded=0;orthogonalLoop=1;jettySize=auto;html=1;entryX=0.5;entryY=0;entryDx=0;entryDy=0;curved=1;" edge="1" parent="1" source="-ydNmQB9zM_-2W_fWb3f-86" target="-ydNmQB9zM_-2W_fWb3f-81">
          <mxGeometry relative="1" as="geometry" />
        </mxCell>
        <mxCell id="-ydNmQB9zM_-2W_fWb3f-96" value="" style="edgeStyle=orthogonalEdgeStyle;rounded=0;orthogonalLoop=1;jettySize=auto;html=1;endArrow=none;startFill=1;startArrow=classic;" edge="1" parent="1" source="-ydNmQB9zM_-2W_fWb3f-86" target="K5gOMNAxIlGWHmhBvM_P-460">
          <mxGeometry relative="1" as="geometry" />
        </mxCell>
        <mxCell id="-ydNmQB9zM_-2W_fWb3f-86" value="&lt;i&gt;Monitor&lt;/i&gt;" style="html=1;dropTarget=0;whiteSpace=wrap;fillColor=#EEEEEE;" vertex="1" parent="1">
          <mxGeometry x="830.32" y="23.25" width="70" height="40" as="geometry" />
        </mxCell>
        <mxCell id="-ydNmQB9zM_-2W_fWb3f-87" style="edgeStyle=orthogonalEdgeStyle;rounded=0;orthogonalLoop=1;jettySize=auto;html=1;entryX=0.5;entryY=1;entryDx=0;entryDy=0;curved=1;" edge="1" parent="1" source="-ydNmQB9zM_-2W_fWb3f-88" target="-ydNmQB9zM_-2W_fWb3f-84">
          <mxGeometry relative="1" as="geometry" />
        </mxCell>
        <mxCell id="-ydNmQB9zM_-2W_fWb3f-88" value="&lt;i&gt;Planner&lt;/i&gt;" style="html=1;dropTarget=0;whiteSpace=wrap;fillColor=#EEEEEE;" vertex="1" parent="1">
          <mxGeometry x="830.32" y="163.25" width="70" height="40" as="geometry" />
        </mxCell>
        <mxCell id="-ydNmQB9zM_-2W_fWb3f-98" style="edgeStyle=orthogonalEdgeStyle;rounded=0;orthogonalLoop=1;jettySize=auto;html=1;entryX=0.68;entryY=1;entryDx=0;entryDy=0;entryPerimeter=0;startArrow=classic;startFill=1;" edge="1" parent="1" source="nUs16ag-8KY5u_Jwet5G-22" target="-ydNmQB9zM_-2W_fWb3f-50">
          <mxGeometry relative="1" as="geometry" />
        </mxCell>
        <mxCell id="-ydNmQB9zM_-2W_fWb3f-101" style="edgeStyle=orthogonalEdgeStyle;rounded=0;orthogonalLoop=1;jettySize=auto;html=1;entryX=1;entryY=0.883;entryDx=0;entryDy=0;entryPerimeter=0;startArrow=classic;startFill=1;" edge="1" parent="1" source="-ydNmQB9zM_-2W_fWb3f-57" target="nUs16ag-8KY5u_Jwet5G-22">
          <mxGeometry relative="1" as="geometry" />
        </mxCell>
      </root>
    </mxGraphModel>
  </diagram>
</mxfile>
